<svg xmlns="http://www.w3.org/2000/svg" version="1.1" xmlns:xlink="http://www.w3.org/1999/xlink" xmlns:svgjs="http://svgjs.dev/svgjs" width="2000" height="252" viewBox="0 0 2000 252"><g transform="matrix(1,0,0,1,-1.212087491870193,0.8294591456590013)"><svg viewBox="0 0 396 50" data-background-color="#ffffff" preserveAspectRatio="xMidYMid meet" height="252" width="2000" xmlns="http://www.w3.org/2000/svg" xmlns:xlink="http://www.w3.org/1999/xlink"><defs></defs><g id="tight-bounds" transform="matrix(1,0,0,1,0.23999332339030843,-0.16457522731329277)"><svg viewBox="0 0 395.52 50.32914944761168" height="50.32914944761168" width="395.52"><g><svg viewBox="0 0 471.9694344766514 60.05719104591463" height="50.32914944761168" width="395.52"><g><rect width="3.9189721183370043" height="52.14806747836291" x="62.2713730432961" y="3.9545617837758584" fill="#000000" opacity="1" stroke-width="0" stroke="transparent" fill-opacity="1" class="rect-o-0" data-fill-palette-color="primary" rx="1%" id="o-0" data-palette-color="#096a2e"></rect></g><g transform="matrix(1,0,0,1,76.44943447665145,8.300234073639434)"><svg viewBox="0 0 395.5199999999999 43.45672289863576" height="43.45672289863576" width="395.5199999999999"><g><svg viewBox="0 0 395.5199999999999 43.45672289863576" height="43.45672289863576" width="395.5199999999999"><g><svg viewBox="0 0 395.5199999999999 43.45672289863576" height="43.45672289863576" width="395.5199999999999"><g transform="matrix(1,0,0,1,0,0)"><svg width="395.5199999999999" viewBox="1.9800000190734863 -36.060001373291016 332.8299865722656 36.56999969482422" height="43.45672289863576" data-palette-color="#096a2e"><path d="M16.14 0L1.98 0 1.98-3.08 5.96-3.76 5.96-31.76 1.98-32.45 1.98-35.55 5.96-35.55 15.89-35.55Q20.61-35.55 24.11-33.3 27.61-31.05 29.57-27.12 31.52-23.19 31.52-18.14L31.52-18.14 31.52-17.38Q31.52-12.45 29.64-8.51 27.76-4.57 24.3-2.28 20.85 0 16.14 0L16.14 0ZM10.77-31.76L10.77-3.76 15.89-3.76Q19.26-3.76 21.68-5.6 24.1-7.45 25.4-10.53 26.71-13.62 26.71-17.38L26.71-17.38 26.71-18.19Q26.71-22.07 25.4-25.13 24.1-28.2 21.68-29.98 19.26-31.76 15.89-31.76L15.89-31.76 10.77-31.76ZM43.28 0L33.1 0 33.1-3.08 35.74-3.44 48.17-35.55 52.29-35.55 64.5-3.44 67.11-3.08 67.11 0 56.91 0 56.91-3.08 59.59-3.54 57.25-10.08 43.02-10.08 40.6-3.54 43.28-3.08 43.28 0ZM49.83-28.56L44.5-14.11 55.78-14.11 50.56-28.56 50.27-29.37 50.12-29.37 49.83-28.56ZM83.56 0L70.8 0 70.8-3.08 74.78-3.76 74.78-31.76 70.8-32.45 70.8-35.52 86.64-35.52Q90.52-35.52 93.2-34.36 95.87-33.2 97.26-31.01 98.65-28.81 98.65-25.63L98.65-25.63Q98.65-22.51 97.3-20.39 95.94-18.26 93.45-17.18 90.96-16.09 87.54-16.02L87.54-16.02 79.58-15.87 79.58-3.76 83.56-3.08 83.56 0ZM100.19 0L94.26 0 86.35-17.75 91.16-17.8 97.72-3.59 100.19-3.15 100.19 0ZM79.58-31.76L79.58-19.65 86.15-19.65Q90.18-19.65 92.01-21.19 93.84-22.73 93.84-25.68L93.84-25.68Q93.84-28.49 92.08-30.13 90.33-31.76 86.64-31.76L86.64-31.76 79.58-31.76ZM117.38 0L104.61 0 104.61-3.08 108.59-3.76 108.59-31.76 104.61-32.45 104.61-35.55 117.38-35.55 117.38-32.45 113.4-31.76 113.4-3.76 117.38-3.08 117.38 0ZM134.15 0.51L134.15 0.51Q130.9 0.51 127.9-0.44 124.89-1.39 122.16-3.37L122.16-3.37 122.16-10.96 125.89-10.96 126.7-5.37Q128.29-4.39 130.14-3.86 132-3.32 134.15-3.32L134.15-3.32Q136.59-3.32 138.28-4.06 139.98-4.81 140.88-6.13 141.79-7.45 141.79-9.2L141.79-9.2Q141.79-10.84 141.01-12.08 140.22-13.33 138.43-14.27 136.64-15.21 133.53-15.92L133.53-15.92Q129.87-16.77 127.35-18.2 124.82-19.63 123.51-21.67 122.21-23.71 122.21-26.34L122.21-26.34Q122.21-29.13 123.68-31.32 125.16-33.52 127.8-34.79 130.43-36.06 133.95-36.06L133.95-36.06Q137.69-36.06 140.55-34.92 143.42-33.79 145.28-32.18L145.28-32.18 145.28-25.07 141.54-25.07 140.74-30.15Q139.64-31.03 138-31.62 136.37-32.2 133.95-32.2L133.95-32.2Q131.9-32.2 130.34-31.48 128.77-30.76 127.9-29.47 127.02-28.17 127.02-26.42L127.02-26.42Q127.02-24.88 127.81-23.73 128.6-22.58 130.4-21.72 132.19-20.85 135.2-20.09L135.2-20.09Q140.81-18.7 143.7-15.98 146.6-13.26 146.6-9.25L146.6-9.25Q146.6-6.4 145.06-4.19 143.52-1.98 140.72-0.73 137.93 0.51 134.15 0.51ZM165.27 0.51L165.27 0.51Q161.83 0.51 159.09-0.81 156.36-2.12 154.44-4.53 152.53-6.93 151.51-10.23 150.5-13.53 150.5-17.5L150.5-17.5 150.5-18.02Q150.5-21.97 151.51-25.28 152.53-28.59 154.44-31.01 156.36-33.42 159.09-34.74 161.83-36.06 165.27-36.06L165.27-36.06Q168.91-36.06 171.67-34.74 174.43-33.42 176.29-31.01 178.16-28.59 179.11-25.28 180.07-21.97 180.07-18.02L180.07-18.02 180.07-17.5Q180.07-13.53 179.11-10.23 178.16-6.93 176.29-4.53 174.43-2.12 171.67-0.81 168.91 0.51 165.27 0.51ZM165.27-3.49L165.27-3.49Q168.81-3.49 171-5.25 173.18-7.01 174.21-10.17 175.23-13.33 175.23-17.5L175.23-17.5 175.23-18.07Q175.23-22.22 174.19-25.35 173.16-28.49 170.96-30.26 168.76-32.03 165.27-32.03L165.27-32.03Q162.07-32.03 159.85-30.25 157.63-28.47 156.48-25.33 155.33-22.19 155.33-18.07L155.33-18.07 155.33-17.5Q155.33-13.35 156.48-10.19 157.63-7.03 159.85-5.26 162.07-3.49 165.27-3.49ZM196.57 0L183.8 0 183.8-3.08 187.78-3.76 187.78-31.76 183.8-32.45 183.8-35.55 187.78-35.55 192.64-35.55 210.07-7.84 210.21-7.89 210.21-31.76 205.84-32.45 205.84-35.55 214.63-35.55 218.61-35.55 218.61-32.45 214.63-31.76 214.63 0 210.24 0 192.34-27.86 192.2-27.81 192.2-3.76 196.57-3.08 196.57 0ZM248.22 0L222.61 0 222.61-3.08 226.59-3.76 226.59-31.76 222.61-32.45 222.61-35.55 226.59-35.55 231.4-35.55 235.38-35.55 235.38-32.45 231.4-31.76 231.4-3.69 243.98-3.69 244.54-9.3 248.22-9.3 248.22 0ZM264.92 0L252.15 0 252.15-3.08 256.13-3.76 256.13-31.76 252.15-32.45 252.15-35.55 264.92-35.55 264.92-32.45 260.94-31.76 260.94-3.76 264.92-3.08 264.92 0ZM281.69 0L268.92 0 268.92-3.08 272.9-3.76 272.9-31.76 268.92-32.45 268.92-35.55 272.9-35.55 277.76-35.55 295.19-7.84 295.34-7.89 295.34-31.76 290.97-32.45 290.97-35.55 299.76-35.55 303.74-35.55 303.74-32.45 299.76-31.76 299.76 0 295.36 0 277.47-27.86 277.32-27.81 277.32-3.76 281.69-3.08 281.69 0ZM334.81 0L307.74 0 307.74-3.08 311.72-3.76 311.72-31.76 307.74-32.45 307.74-35.55 334.06-35.55 334.06-27 330.2-27 329.66-31.84 316.53-31.84 316.53-20.26 329.64-20.26 329.64-16.48 316.53-16.48 316.53-3.61 330.44-3.61 330.98-8.52 334.81-8.52 334.81 0Z" opacity="1" transform="matrix(1,0,0,1,0,0)" fill="#000000" class="undefined-text-0" data-fill-palette-color="primary" id="text-0"></path></svg></g></svg></g></svg></g></svg></g><g><svg viewBox="0 0 52.012283728277765 60.05719104591463" height="60.05719104591463" width="52.012283728277765"><g><svg xmlns="http://www.w3.org/2000/svg" xmlns:xlink="http://www.w3.org/1999/xlink" version="1.1" x="0" y="0" viewBox="9.54699993133545 3.2899999618530273 80.906005859375 93.41999816894531" enable-background="new 0 0 100 100" xml:space="preserve" height="60.05719104591463" width="52.012283728277765" class="icon-icon-0" data-fill-palette-color="accent" id="icon-0"><g fill="#096a2e" data-fill-palette-color="accent"><path d="M31.112 39.094v21.812L49.999 71.81l18.89-10.903V39.094l-18.89-10.905L31.112 39.094zM60.925 56.308l-10.926 6.307-10.924-6.307V43.692l10.924-6.308 10.926 6.308V56.308z" fill="#000000" data-fill-palette-color="accent"></path><path d="M49.999 3.29L9.547 26.646v46.709L49.999 96.71l40.454-23.355V26.646L49.999 3.29zM82.19 68.584L49.999 87.169 17.811 68.584v-37.17l32.188-18.585L82.19 31.414V68.584z" fill="#000000" data-fill-palette-color="accent"></path><path d="M20.368 32.89v34.218l29.631 17.108 29.634-17.108V32.89L49.999 15.782 20.368 32.89zM71.446 62.383l-21.447 12.38-21.444-12.38V37.618l21.444-12.382 21.447 12.382V62.383z" fill="#000000" data-fill-palette-color="accent"></path></g></svg></g></svg></g></svg></g></svg><rect width="395.52" height="50.32914944761168" fill="none" stroke="none" visibility="hidden"></rect></g></svg></g></svg>